<svg xmlns="http://www.w3.org/2000/svg" xmlns:xlink="http://www.w3.org/1999/xlink" width="500" zoomAndPan="magnify" viewBox="0 0 375 374.999991" height="500" preserveAspectRatio="xMidYMid meet" version="1.0"><defs><clipPath id="9d82ff4283"><path d="M 25 30 L 230 30 L 230 207 L 25 207 Z M 25 30 " clip-rule="nonzero"/></clipPath><clipPath id="ce178bb65f"><path d="M 255.460938 76.363281 L 152.371094 251.6875 L -0.816406 161.613281 L 102.277344 -13.710938 Z M 255.460938 76.363281 " clip-rule="nonzero"/></clipPath><clipPath id="ec5e2dcc43"><path d="M 75.960938 206.335938 L 25.570312 116.738281 L 76.074219 30.851562 L 178.867188 31.324219 L 229.257812 120.925781 L 178.757812 206.808594 Z M 75.960938 206.335938 " clip-rule="nonzero"/></clipPath><clipPath id="91be37633a"><path d="M 26 165 L 225 165 L 225 344 L 26 344 Z M 26 165 " clip-rule="nonzero"/></clipPath><clipPath id="c54e942c55"><path d="M 251.0625 208.097656 L 146.082031 386.636719 L 0.0546875 300.773438 L 105.035156 122.234375 Z M 251.0625 208.097656 " clip-rule="nonzero"/></clipPath><clipPath id="fbc97deac2"><path d="M 73.238281 343.417969 L 26.425781 255.921875 L 78.832031 166.796875 L 178.050781 165.164062 L 224.859375 252.660156 L 172.453125 341.785156 Z M 73.238281 343.417969 " clip-rule="nonzero"/></clipPath><clipPath id="ceb491385b"><path d="M 179 104 L 366 104 L 366 267 L 179 267 Z M 179 104 " clip-rule="nonzero"/></clipPath><clipPath id="da99b531cf"><path d="M 389.753906 145.265625 L 294.703125 306.917969 L 155.835938 225.261719 L 250.886719 63.613281 Z M 389.753906 145.265625 " clip-rule="nonzero"/></clipPath><clipPath id="ec0651deeb"><path d="M 225.304688 266.03125 L 179.625 184.804688 L 227.132812 104.011719 L 320.320312 104.441406 L 366 185.664062 L 318.492188 266.460938 Z M 225.304688 266.03125 " clip-rule="nonzero"/></clipPath><clipPath id="d1900d5611"><path d="M 11 3 L 218 3 L 218 183 L 11 183 Z M 11 3 " clip-rule="nonzero"/></clipPath><clipPath id="83b7b19a1d"><path d="M 243.785156 49.023438 L 138.933594 227.339844 L -14.253906 137.265625 L 90.597656 -41.050781 Z M 243.785156 49.023438 " clip-rule="nonzero"/></clipPath><clipPath id="7c24bad598"><path d="M 62.378906 182.238281 L 11.988281 92.636719 L 64.394531 3.511719 L 167.191406 3.984375 L 217.582031 93.585938 L 165.175781 182.710938 Z M 62.378906 182.238281 " clip-rule="nonzero"/></clipPath><clipPath id="bf949a1b67"><path d="M 11 192 L 218 192 L 218 372 L 11 372 Z M 11 192 " clip-rule="nonzero"/></clipPath><clipPath id="640461c54e"><path d="M 243.234375 237.804688 L 138.382812 416.121094 L -14.804688 326.046875 L 90.046875 147.730469 Z M 243.234375 237.804688 " clip-rule="nonzero"/></clipPath><clipPath id="a140cb278e"><path d="M 61.828125 371.019531 L 11.4375 281.417969 L 63.84375 192.292969 L 166.640625 192.765625 L 217.03125 282.367188 L 164.625 371.492188 Z M 61.828125 371.019531 " clip-rule="nonzero"/></clipPath></defs><g clip-path="url(#9d82ff4283)"><g clip-path="url(#ce178bb65f)"><g clip-path="url(#ec5e2dcc43)"><path fill="#e9e8e8" d="M 255.460938 76.363281 L 152.722656 251.089844 L -0.464844 161.015625 L 102.277344 -13.710938 Z M 255.460938 76.363281 " fill-opacity="1" fill-rule="nonzero"/></g></g></g><g clip-path="url(#91be37633a)"><g clip-path="url(#c54e942c55)"><g clip-path="url(#fbc97deac2)"><path fill="#e9e8e8" d="M 251.0625 208.097656 L 146.417969 386.066406 L 0.390625 300.203125 L 105.035156 122.234375 Z M 251.0625 208.097656 " fill-opacity="1" fill-rule="nonzero"/></g></g></g><g clip-path="url(#ceb491385b)"><g clip-path="url(#da99b531cf)"><g clip-path="url(#ec0651deeb)"><path fill="#ffffff" d="M 389.753906 145.265625 L 294.703125 306.917969 L 155.835938 225.261719 L 250.886719 63.613281 Z M 389.753906 145.265625 " fill-opacity="1" fill-rule="nonzero"/></g></g></g><g clip-path="url(#d1900d5611)"><g clip-path="url(#83b7b19a1d)"><g clip-path="url(#7c24bad598)"><path fill="#ffffff" d="M 243.785156 49.023438 L 138.933594 227.339844 L -14.253906 137.265625 L 90.597656 -41.050781 Z M 243.785156 49.023438 " fill-opacity="1" fill-rule="nonzero"/></g></g></g><g clip-path="url(#bf949a1b67)"><g clip-path="url(#640461c54e)"><g clip-path="url(#a140cb278e)"><path fill="#ffffff" d="M 243.234375 237.804688 L 138.382812 416.121094 L -14.804688 326.046875 L 90.046875 147.730469 Z M 243.234375 237.804688 " fill-opacity="1" fill-rule="nonzero"/></g></g></g></svg>
