<svg xmlns="http://www.w3.org/2000/svg" xmlns:xlink="http://www.w3.org/1999/xlink" width="500" zoomAndPan="magnify" viewBox="0 0 375 374.999991" height="500" preserveAspectRatio="xMidYMid meet" version="1.0"><defs><g/><clipPath id="db46b8772a"><path d="M 179 104 L 366 104 L 366 267 L 179 267 Z M 179 104 " clip-rule="nonzero"/></clipPath><clipPath id="484ce18ad9"><path d="M 389.753906 145.265625 L 294.714844 306.894531 L 155.714844 225.164062 L 250.753906 63.535156 Z M 389.753906 145.265625 " clip-rule="nonzero"/></clipPath><clipPath id="0205d5fbda"><path d="M 389.75 145.269531 L 294.742188 306.851562 L 155.882812 225.203125 L 250.890625 63.621094 Z M 389.75 145.269531 " clip-rule="nonzero"/></clipPath><clipPath id="2db4d167bf"><path d="M 225.3125 266.027344 L 179.632812 184.808594 L 227.140625 104.015625 L 320.320312 104.445312 L 366 185.667969 L 318.492188 266.457031 Z M 225.3125 266.027344 " clip-rule="nonzero"/></clipPath><clipPath id="bcd5aa8c58"><path d="M 11 3 L 218 3 L 218 183 L 11 183 Z M 11 3 " clip-rule="nonzero"/></clipPath><clipPath id="11e42b798e"><path d="M 243.785156 49.023438 L 138.933594 227.339844 L -14.253906 137.265625 L 90.597656 -41.050781 Z M 243.785156 49.023438 " clip-rule="nonzero"/></clipPath><clipPath id="c9712921f4"><path d="M 62.378906 182.238281 L 11.988281 92.636719 L 64.394531 3.511719 L 167.191406 3.984375 L 217.582031 93.585938 L 165.175781 182.710938 Z M 62.378906 182.238281 " clip-rule="nonzero"/></clipPath><clipPath id="54983444e2"><path d="M 11 192 L 218 192 L 218 372 L 11 372 Z M 11 192 " clip-rule="nonzero"/></clipPath><clipPath id="bd99ce1b5c"><path d="M 243.234375 237.804688 L 138.382812 416.121094 L -14.804688 326.046875 L 90.046875 147.730469 Z M 243.234375 237.804688 " clip-rule="nonzero"/></clipPath><clipPath id="b025082127"><path d="M 61.828125 371.019531 L 11.4375 281.417969 L 63.84375 192.292969 L 166.640625 192.765625 L 217.03125 282.367188 L 164.625 371.492188 Z M 61.828125 371.019531 " clip-rule="nonzero"/></clipPath></defs><g clip-path="url(#db46b8772a)"><g clip-path="url(#484ce18ad9)"><g clip-path="url(#0205d5fbda)"><g clip-path="url(#2db4d167bf)"><path stroke-linecap="butt" transform="matrix(-0.380154, 0.646516, -0.646516, -0.380154, 389.751865, 145.270771)" fill="none" stroke-linejoin="miter" d="M 249.926007 107.389406 L 187.447985 214.781944 L 62.480446 214.780585 L 0.000697958 107.393028 L 62.483209 -0.00214929 L 187.446259 0.00184939 Z M 249.926007 107.389406 " stroke="#ffffff" stroke-width="36" stroke-opacity="1" stroke-miterlimit="4"/></g></g></g></g><g clip-path="url(#bcd5aa8c58)"><g clip-path="url(#11e42b798e)"><g clip-path="url(#c9712921f4)"><path fill="#ffffff" d="M 243.785156 49.023438 L 138.933594 227.339844 L -14.253906 137.265625 L 90.597656 -41.050781 Z M 243.785156 49.023438 " fill-opacity="1" fill-rule="nonzero"/></g></g></g><g clip-path="url(#54983444e2)"><g clip-path="url(#bd99ce1b5c)"><g clip-path="url(#b025082127)"><path fill="#ffffff" d="M 243.234375 237.804688 L 138.382812 416.121094 L -14.804688 326.046875 L 90.046875 147.730469 Z M 243.234375 237.804688 " fill-opacity="1" fill-rule="nonzero"/></g></g></g><g fill="#ffffff" fill-opacity="1"><g transform="translate(226.921571, 226.491232)"><g><path d="M 87.609375 -66.75 L 87.609375 -50.0625 C 87.609375 -47 86.859375 -44.195312 85.359375 -41.65625 C 83.867188 -39.125 81.851562 -37.109375 79.3125 -35.609375 C 76.78125 -34.117188 73.984375 -33.375 70.921875 -33.375 L 54.234375 -33.375 L 70.921875 -16.6875 L 87.609375 -16.6875 L 87.609375 0 L 67.578125 0 C 65.210938 0 63.195312 -0.832031 61.53125 -2.5 L 30.65625 -33.375 L 20.859375 -33.375 L 20.859375 0 L 4.171875 0 L 4.171875 -83.4375 L 70.921875 -83.4375 C 73.984375 -83.4375 76.78125 -82.6875 79.3125 -81.1875 C 81.851562 -79.695312 83.867188 -77.679688 85.359375 -75.140625 C 86.859375 -72.609375 87.609375 -69.8125 87.609375 -66.75 Z M 70.921875 -66.75 L 20.859375 -66.75 L 20.859375 -50.0625 L 70.921875 -50.0625 Z M 70.921875 -66.75 "/></g></g></g></svg>
